HIERARCHY
ROOT Hips
{
	OFFSET 0.00000 0.00000 0.00000
	CHANNELS 6 Xposition Yposition Zposition Zrotation Yrotation Xrotation 
	JOINT LHipJoint
	{
		OFFSET 0 0 0
		CHANNELS 3 Zrotation Yrotation Xrotation
		JOINT LeftHip
		{
			OFFSET 1.46561 -1.72757 0.83774
			CHANNELS 3 Zrotation Yrotation Xrotation
			JOINT LeftKnee
			{
				OFFSET 2.48915 -6.83890 0.00000
				CHANNELS 3 Zrotation Yrotation Xrotation
				JOINT LeftAnkle
				{
					OFFSET 2.60555 -7.15868 0.00000
					CHANNELS 3 Zrotation Yrotation Xrotation
					JOINT LeftToe
					{
						OFFSET 0.19248 -0.52884 2.26738
						CHANNELS 3 Zrotation Yrotation Xrotation
						End Site
						{
							OFFSET 0.00000 -0.00000 1.17015
						}
					}
				}
			}
		}
	}
	JOINT RHipJoint
	{
		OFFSET 0 0 0
		CHANNELS 3 Zrotation Yrotation Xrotation
		JOINT RightHip
		{
			OFFSET -1.46918 -1.72757 0.83774
			CHANNELS 3 Zrotation Yrotation Xrotation
			JOINT RightKnee
			{
				OFFSET -2.49034 -6.84216 0.00000
				CHANNELS 3 Zrotation Yrotation Xrotation
				JOINT RightAnkle
				{
					OFFSET -2.65971 -7.30750 0.00000
					CHANNELS 3 Zrotation Yrotation Xrotation
					JOINT RightToe
					{
						OFFSET -0.19227 -0.52827 2.30785
						CHANNELS 3 Zrotation Yrotation Xrotation
						End Site
						{
							OFFSET -0.00000 -0.00000 1.18972
						}
					}
				}
			}
		}
	}
	JOINT lowerback
	{
		OFFSET 0 0 0
		CHANNELS 3 Zrotation Yrotation Xrotation
		JOINT Chest
		{
			OFFSET 0.02432 2.19909 -0.28000
			CHANNELS 3 Zrotation Yrotation Xrotation
			JOINT Chest2
			{
				OFFSET 0.03714 2.21816 -0.15261
				CHANNELS 3 Zrotation Yrotation Xrotation
				JOINT lowerneck
				{
					OFFSET 0 0 0
					CHANNELS 3 Zrotation Yrotation Xrotation
					JOINT Neck
					{
						OFFSET -0.01896 1.56165 0.21681
						CHANNELS 3 Zrotation Yrotation Xrotation
						JOINT Head
						{
							OFFSET 0.02744 1.56009 0.06764
							CHANNELS 3 Zrotation Yrotation Xrotation
							End Site
							{
								OFFSET 0.01212 1.60574 0.00298
							}
						}
					}
				}
				JOINT LeftCollar
				{
					OFFSET 0 0 0
					CHANNELS 3 Zrotation Yrotation Xrotation
					JOINT LeftShoulder
					{
						OFFSET 3.05595 1.48048 -0.60794
CHANNELS 3 Zrotation Xrotation Yrotation
						JOINT LeftElbow
						{
OFFSET 0 -5.206070 -0.000000
CHANNELS 3 Zrotation Xrotation Yrotation
							JOINT LeftWrist
							{
OFFSET 0 -3.399610 0.000000
CHANNELS 3 Zrotation Xrotation Yrotation
								JOINT lhand
								{
									OFFSET 0 0 0
CHANNELS 3 Zrotation Xrotation Yrotation
									JOINT LFingers
									{
OFFSET 0 -0.519690 0.000000
CHANNELS 3 Zrotation Xrotation Yrotation
										End Site
										{
OFFSET 0 -0.418990 0.000000
										}
									}
								}
								JOINT LThumb
								{
OFFSET 0 0.000000 0.000000
CHANNELS 3 Zrotation Xrotation Yrotation
									End Site
									{
OFFSET 0 -0.425390 0.425390
									}
								}
							}
						}
					}
				}
				JOINT RightCollar
				{
					OFFSET 0 0 0
					CHANNELS 3 Zrotation Yrotation Xrotation
					JOINT RightShoulder
					{
						OFFSET -2.99052 1.57608 -0.69102
CHANNELS 3 Zrotation Xrotation Yrotation
						JOINT RightElbow
						{
OFFSET 0 -5.322140 0.000000
CHANNELS 3 Zrotation Xrotation Yrotation
							JOINT RightWrist
							{
OFFSET 0 -3.512080 0.000000
CHANNELS 3 Zrotation Xrotation Yrotation
								JOINT rhand
								{
									OFFSET 0 0 0
CHANNELS 3 Zrotation Xrotation Yrotation
									JOINT RFingers
									{
OFFSET 0 -0.586680 0.000000
CHANNELS 3 Zrotation Xrotation Yrotation
										End Site
										{
OFFSET 0 -0.473000 0.000000
										}
									}
								}
								JOINT RThumb
								{
OFFSET 0 0.000000 0.000000
CHANNELS 3 Zrotation Xrotation Yrotation
									End Site
									{
OFFSET 0 -0.480220 0.480220
									}
								}
							}
						}
					}
				}
			}
		}
	}
}
MOTION
Frames: 9
Frame Time: 0.008333333333333333
0.326100 17.505900 3.167200 -1.139700 -4.341200 6.573200 0.000000 0.000000 0.000000 -16.434800 2.078300 -15.479800 2.093100 9.057400 25.975100 0.441900 9.301200 -19.204800 0.168100 2.641700 7.282800 0.000000 0.000000 0.000000 16.288600 2.039100 -17.655100 -2.671100 -10.142600 29.439800 -0.986500 1.389700 -18.357300 -0.391000 -4.015000 11.118800 -2.002600 -1.693200 -6.228400 0.565400 -2.123700 1.912000 1.477800 -1.128700 5.579200 -5.826500 -9.994800 -6.478100 7.898200 -13.641300 8.140800 2.461300 -6.537400 4.437800 0.000000 0.000000 0.000000 69.130400 -0.535600 35.009900 14.008500 -22.746900 2.831400 20.487000 -0.648200 5.341700 0.000000 0.000000 0.000000 -7.125000 0.000000 0.000000 -4.619500 24.281400 -2.318400 0.000000 0.000000 0.000000 -71.554200 -2.999700 -50.314300 -14.027200 -22.773600 -2.838600 -7.493300 44.534600 23.043700 0.000000 0.000000 0.000000 7.125000 0.000000 -0.000000 21.855700 51.859500 -3.843900
0.322774 17.505713 3.167258 -1.118851 -4.335886 6.565079 0.000000 0.000000 0.000000 -16.443976 2.087307 -15.468318 2.091234 9.053655 25.963178 0.440219 9.291657 -19.176529 0.165674 2.621989 7.228093 0.000000 0.000000 0.000000 16.276114 2.052385 -17.650181 -2.674200 -10.147913 29.457053 -0.987313 1.378790 -18.368085 -0.388422 -4.002230 11.082929 -2.028547 -1.670316 -6.225573 0.554943 -2.090405 1.907978 1.485418 -1.112880 5.572486 -5.806018 -9.942825 -6.568877 7.904327 -13.577945 8.249289 2.458191 -6.500750 4.480718 0.000000 0.000000 0.000000 69.191319 -0.576553 34.874116 14.007830 -22.745888 2.831132 20.063240 -0.816539 6.063031 0.000000 0.000000 0.000000 -7.125000 0.000000 0.000000 -4.925460 23.532930 -2.558279 0.000000 0.000000 0.000000 -71.496042 -2.930801 -50.253394 -14.042702 -22.795724 -2.844596 -7.510647 44.470632 22.984933 0.000000 0.000000 0.000000 7.125000 0.000000 0.000000 21.808336 51.807999 -3.806555
0.320189 17.505642 3.168574 -1.113024 -4.304422 6.569651 0.000000 0.000000 0.000000 -16.439390 2.070989 -15.470790 2.091732 9.054517 25.966150 0.442442 9.269178 -19.178790 0.168389 2.643965 7.288963 0.000000 0.000000 0.000000 16.280572 1.984573 -17.666146 -2.673847 -10.147421 29.455510 -0.989485 1.417015 -18.378453 -0.393074 -4.025628 11.148816 -2.019530 -1.643724 -6.259948 0.539877 -2.054192 1.907543 1.467773 -1.094467 5.589128 -5.732245 -9.857216 -6.710430 7.885977 -13.474030 8.415320 2.439700 -6.441361 4.541553 0.000000 0.000000 0.000000 69.237835 -0.769917 34.939207 13.981505 -22.708227 2.820980 20.098326 -0.725123 6.251227 0.000000 0.000000 0.000000 -7.125000 0.000000 0.000000 -4.897550 23.332138 -2.566384 0.000000 0.000000 0.000000 -71.406053 -2.846710 -50.271076 -14.054617 -22.812751 -2.849255 -7.568537 44.412144 22.839819 0.000000 0.000000 0.000000 7.125000 0.000000 0.000000 21.677134 51.682928 -3.713198
0.316665 17.505381 3.167877 -1.125089 -4.259333 6.556536 0.000000 0.000000 0.000000 -16.409080 2.082392 -15.465722 2.092937 9.057035 25.973945 0.445579 9.217410 -19.161618 0.169217 2.650097 7.306080 0.000000 0.000000 0.000000 16.309239 1.968351 -17.645942 -2.673700 -10.147200 29.454600 -0.990517 1.402040 -18.392676 -0.395119 -4.036054 11.178181 -2.013629 -1.628881 -6.265580 0.539299 -2.034700 1.921021 1.465685 -1.084807 5.605390 -5.601284 -9.767643 -6.772377 7.869453 -13.363880 8.441451 2.421196 -6.381954 4.542368 0.000000 0.000000 0.000000 69.257934 -1.007012 35.154357 13.936200 -22.643443 2.803479 20.050569 -0.483979 6.146420 0.000000 0.000000 0.000000 -7.125000 0.000000 0.000000 -4.933945 23.445269 -2.572860 0.000000 0.000000 0.000000 -71.316520 -2.854864 -50.401791 -14.060079 -22.820553 -2.851376 -7.559480 44.415486 22.970886 0.000000 0.000000 0.000000 7.125000 0.000000 0.000000 21.754600 51.803032 -3.793613
0.313731 17.505242 3.168264 -1.102702 -4.214682 6.527966 0.000000 0.000000 0.000000 -16.420564 2.077919 -15.432843 2.091783 9.054720 25.966506 0.447264 9.192346 -19.155533 0.170332 2.658791 7.330230 0.000000 0.000000 0.000000 16.297083 1.906954 -17.629906 -2.676633 -10.152213 29.471051 -0.993175 1.425030 -18.412068 -0.396879 -4.044792 11.202760 -2.035873 -1.618806 -6.246747 0.526448 -2.019051 1.920105 1.467167 -1.077585 5.593304 -5.505136 -9.653452 -6.849094 7.866264 -13.222307 8.523788 2.412410 -6.305984 4.564255 0.000000 0.000000 0.000000 69.263799 -1.231478 35.291853 13.890986 -22.578656 2.786149 19.913692 -0.306582 6.276328 0.000000 0.000000 0.000000 -7.125000 0.000000 0.000000 -5.033619 23.313579 -2.640320 0.000000 0.000000 0.000000 -71.227246 -2.855995 -50.432472 -14.041170 -22.793584 -2.844020 -7.420266 44.474583 23.128389 0.000000 0.000000 0.000000 7.125000 0.000000 0.000000 21.970085 51.925786 -3.902520
0.310841 17.504634 3.167534 -1.103112 -4.154139 6.520423 0.000000 0.000000 0.000000 -16.405105 2.061383 -15.433268 2.093193 9.057553 25.975591 0.447274 9.168040 -19.131289 0.167319 2.635123 7.264428 0.000000 0.000000 0.000000 16.311046 1.823592 -17.649096 -2.678298 -10.155196 29.480787 -0.993575 1.438950 -18.411939 -0.397093 -4.045931 11.206006 -2.008019 -1.596546 -6.264402 0.509094 -1.990265 1.934837 1.436015 -1.062333 5.615953 -5.345307 -9.556462 -7.195230 7.720502 -13.097850 8.794407 2.332944 -6.232624 4.675641 0.000000 0.000000 0.000000 69.239782 -1.400960 35.066789 13.907299 -22.602020 2.792415 20.120731 -0.277979 5.834249 0.000000 0.000000 0.000000 -7.125000 0.000000 0.000000 -4.885586 23.772959 -2.510350 0.000000 0.000000 0.000000 -71.110379 -2.794437 -50.503673 -14.020500 -22.764000 -2.836057 -7.495453 44.524222 22.363020 0.000000 0.000000 0.000000 7.125000 0.000000 0.000000 21.501867 51.227452 -3.435715
0.307813 17.504379 3.166809 -1.097313 -4.108832 6.518622 0.000000 0.000000 0.000000 -16.396708 2.070291 -15.455398 2.094937 9.061175 25.986824 0.448450 9.121063 -19.098381 0.165650 2.622438 7.229253 0.000000 0.000000 0.000000 16.318292 1.817005 -17.649717 -2.679479 -10.157237 29.487370 -0.993300 1.397792 -18.420315 -0.393533 -4.027765 11.154842 -1.994116 -1.579556 -6.249323 0.494931 -1.968336 1.933522 1.416452 -1.050672 5.603982 -5.177934 -9.339765 -7.284979 7.660905 -12.818898 8.879459 2.307980 -6.089573 4.683619 0.000000 0.000000 0.000000 69.313315 -1.538758 34.701216 13.838953 -22.503939 2.766131 20.445731 -0.240735 5.438171 0.000000 0.000000 0.000000 -7.125000 0.000000 0.000000 -4.649008 24.180460 -2.344349 0.000000 0.000000 0.000000 -70.973617 -2.655693 -50.039151 -14.088775 -22.861391 -2.862496 -7.323730 44.022719 22.919958 0.000000 0.000000 0.000000 7.125000 0.000000 0.000000 21.950852 51.716649 -3.783118
0.305077 17.504015 3.167185 -1.110102 -4.085138 6.499714 0.000000 0.000000 0.000000 -16.370851 2.081162 -15.440068 2.095500 9.062208 25.990123 0.449377 9.101100 -19.088499 0.163146 2.602144 7.173072 0.000000 0.000000 0.000000 16.345303 1.809117 -17.621943 -2.680477 -10.158862 29.492585 -0.996593 1.388854 -18.453772 -0.397109 -4.045984 11.206006 -1.957812 -1.552106 -6.228312 0.501039 -1.935383 1.933099 1.406630 -1.033161 5.588966 -4.934913 -9.077236 -7.573390 7.398407 -12.464370 9.089423 2.205501 -5.910069 4.740448 0.000000 0.000000 0.000000 69.260988 -1.722916 34.757501 13.805663 -22.456156 2.753439 20.537048 0.054900 5.484476 0.000000 0.000000 0.000000 -7.125000 0.000000 0.000000 -4.580483 24.127732 -2.315045 0.000000 0.000000 0.000000 -70.903746 -2.631897 -50.117805 -14.081013 -22.850412 -2.859453 -7.237432 44.133996 23.007595 0.000000 0.000000 0.000000 7.125000 0.000000 0.000000 22.078404 51.783574 -3.843950
0.302823 17.503600 3.166761 -1.102418 -4.068208 6.489679 0.000000 0.000000 0.000000 -16.368896 2.090300 -15.436559 2.095189 9.061672 25.988406 0.451568 9.075353 -19.087526 0.163023 2.601022 7.169897 0.000000 0.000000 0.000000 16.347137 1.786806 -17.619973 -2.682639 -10.162572 29.504926 -0.998467 1.395069 -18.470161 -0.393135 -4.025785 11.149303 -1.912899 -1.525098 -6.224077 0.493646 -1.902838 1.944431 1.377350 -1.015525 5.595264 -4.766762 -8.746579 -7.948524 7.225126 -12.018670 9.317776 2.144492 -5.681326 4.824165 0.000000 0.000000 0.000000 69.225265 -1.795228 34.466060 13.810260 -22.462858 2.755165 20.385598 -0.036725 5.478841 0.000000 0.000000 0.000000 -7.125000 0.000000 0.000000 -4.693350 24.139585 -2.371167 0.000000 0.000000 0.000000 -70.863574 -2.633619 -50.215866 -14.048178 -22.803528 -2.846774 -7.268588 44.250620 22.868412 0.000000 0.000000 0.000000 7.125000 0.000000 0.000000 21.975182 51.659892 -3.755816
